# xmcd
#
# Track frame offsets: 
#        150
#        22689
#        36768
#        64626
#        90767
#        111754
#        133583
#        154499
#        182534
#        200849
#        221484
#        242770
#
# Disc length: 3606 seconds
#
# Revision: 0
# Processed by: cddbd v1.5.2PL0 Copyright (c) Steve Scherf et al.
# Submitted via: ExactAudioCopy v0.99pb5
#
DISCID=990e140c
DTITLE=Maja Jane Coles - Take Flight - CD2
DYEAR=2017
DGENRE=Hip-Hop/House/Trip-Hop/Slow-House/Leftfield
TTITLE0=Won't Let You Down
TTITLE1=On My Way
TTITLE2=Go On And Make It Through
TTITLE3=Cherry Bomb
TTITLE4=Chasing Sunshine
TTITLE5=Golden Days
TTITLE6=Werk
TTITLE7=Passing Me By
TTITLE8=Trails
TTITLE9=Stay
TTITLE10=Pulse
TTITLE11=Starlight
EXTD=
EXTT0=
EXTT1=
EXTT2=
EXTT3=
EXTT4=
EXTT5=
EXTT6=
EXTT7=
EXTT8=
EXTT9=
EXTT10=
EXTT11=
PLAYORDER=
